<?xml version="1.0" encoding="utf-8"?>
<!-- Generator: Adobe Illustrator 18.0.0, SVG Export Plug-In . SVG Version: 6.00 Build 0)  -->
<!DOCTYPE svg PUBLIC "-//W3C//DTD SVG 1.1//EN" "http://www.w3.org/Graphics/SVG/1.1/DTD/svg11.dtd">
<svg version="1.1" xmlns="http://www.w3.org/2000/svg" xmlns:xlink="http://www.w3.org/1999/xlink" x="0px" y="0px"
	 viewBox="0 0 1000 1000" enable-background="new 0 0 1000 1000" xml:space="preserve">
<g id="Calque_3">
</g>
<g id="Calque_1">
	<path fill="#FFFFFF" d="M714.9,624.1c21.5-36.7,33.8-79.5,33.8-125.1c0-136.8-110.9-247.7-247.7-247.7c-0.3,0-0.7,0-1,0
		C363.6,251.8,253.3,362.5,253.3,499c0,45.3,12.1,87.7,33.3,124.2c42.9,73.9,122.8,123.5,214.4,123.5
		C592.2,746.7,671.9,697.5,714.9,624.1z M885.5,289.7v420.5c0,7.6-4.1,14.7-10.7,18.5L510.7,939c-6.6,3.8-14.8,3.8-21.4,0
		L125.2,728.8c-6.6-3.8-10.7-10.9-10.7-18.5V289.7c0-7.6,4.1-14.7,10.7-18.5L489.3,61c6.6-3.8,14.8-3.8,21.4,0l364.2,210.3
		C881.4,275,885.5,282.1,885.5,289.7z"/>
	<path fill="#FFFFFF" d="M609.4,434.2l-107-61.7c-0.7-0.4-1.6-0.6-2.4-0.6s-1.7,0.2-2.4,0.6l-107.1,61.7c-1.5,0.9-2.6,2.4-2.6,4.1
		v123.4c0,0.9,0.4,1.7,0.8,2.4c0.4,0.7,1.1,1.3,1.8,1.7l106.9,61.7c1.5,0.8,3.3,0.8,4.8,0l106.9-61.7c0.7-0.4,1.5-1,1.9-1.7
		c0.4-0.7,0.8-1.5,0.8-2.4V438.3C612,436.6,610.9,435,609.4,434.2z"/>
	<path fill="#FF6411" d="M501,251.3c-0.3,0-0.7,0-1,0C363.6,251.8,253.3,362.5,253.3,499c0,45.3,12.1,87.7,33.4,124.2
		c42.9,73.9,122.8,123.5,214.4,123.5c91.2,0,170.9-49.3,213.9-122.7c21.5-36.7,33.9-79.4,33.9-125.1
		C748.7,362.2,637.8,251.3,501,251.3z M609.3,565.8l-106.9,61.7c-1.5,0.8-3.3,0.8-4.8,0l-106.9-61.7c-0.7-0.4-1.5-1-1.9-1.7
		c-0.4-0.7-0.8-1.5-0.8-2.4V438.3c0-1.7,1.1-3.3,2.6-4.1l107-61.7c0.7-0.4,1.6-0.6,2.4-0.6s1.7,0.2,2.4,0.6l107.1,61.7
		c1.5,0.9,2.6,2.4,2.6,4.1v123.4c0,0.9-0.4,1.7-0.8,2.4C610.8,564.8,610,565.4,609.3,565.8z"/>
	<line fill="none" stroke="#000000" stroke-width="25" stroke-miterlimit="10" x1="714.9" y1="624.1" x2="873.5" y2="715.7"/>
	<line fill="none" stroke="#000000" stroke-width="25" stroke-miterlimit="10" x1="286.6" y1="623.2" x2="126.5" y2="715.7"/>
	<line fill="none" stroke="#000000" stroke-width="25" stroke-miterlimit="10" x1="500" y1="251.3" x2="500" y2="68"/>
	<path fill="none" stroke="#000000" stroke-width="25" stroke-miterlimit="10" d="M125.2,271.2L489.3,61c6.6-3.8,14.8-3.8,21.4,0
		l364.2,210.3c6.6,3.8,10.7,10.9,10.7,18.5v420.5c0,7.6-4.1,14.7-10.7,18.5L510.7,939c-6.6,3.8-14.8,3.8-21.4,0L125.2,728.8
		c-6.6-3.8-10.7-10.9-10.7-18.5V289.7C114.5,282.1,118.6,275,125.2,271.2z"/>
	<path fill="none" stroke="#000000" stroke-width="20" stroke-miterlimit="10" d="M714.9,624.1c21.5-36.7,33.8-79.5,33.8-125.1
		c0-136.8-110.9-247.7-247.7-247.7c-0.3,0-0.7,0-1,0C363.6,251.8,253.3,362.5,253.3,499c0,45.3,12.1,87.7,33.3,124.2
		c42.9,73.9,122.8,123.5,214.4,123.5C592.2,746.7,671.9,697.5,714.9,624.1z"/>
	<path fill="none" stroke="#000000" stroke-width="15" stroke-miterlimit="10" d="M389,564.1c-0.4-0.7-0.6-1.5-0.6-2.4V438.3
		c0-1.7,0.9-3.3,2.4-4.1l106.9-61.7c0.7-0.4,1.6-0.6,2.4-0.6s1.6,0.2,2.4,0.6l106.9,61.7c1.5,0.9,2.4,2.4,2.4,4.1v123.4
		c0,0.9-0.2,1.7-0.6,2.4c-0.4,0.7-1,1.3-1.7,1.7l-106.9,61.7c-1.5,0.8-3.3,0.8-4.8,0l-106.9-61.7C390,565.4,389.4,564.8,389,564.1z"
		/>
	<polyline fill="none" stroke="#000000" stroke-width="15" stroke-miterlimit="10" points="500,622 500,500 500,496.2 500,496 
		500,494 	"/>
	<line fill="none" stroke="#000000" stroke-width="15" stroke-miterlimit="10" x1="606.1" y1="438.5" x2="500" y2="496.2"/>
	<line fill="none" stroke="#000000" stroke-width="15" stroke-miterlimit="10" x1="500" y1="496.2" x2="394.6" y2="439"/>
</g>
<g id="Calque_2">
</g>
</svg>
